<?xml version="1.0" encoding="UTF-8" standalone="no"?>
<svg
    fill="white"
    viewBox="0 0 100 100"
    inkscape:version="1.2.2 (b0a8486541, 2022-12-01)"
    sodipodi:docname="tankobon_logo.svg"
    xmlns:inkscape="http://www.inkscape.org/namespaces/inkscape"
    xmlns:sodipodi="http://sodipodi.sourceforge.net/DTD/sodipodi-0.dtd"
    xmlns="http://www.w3.org/2000/svg"
    xmlns:svg="http://www.w3.org/2000/svg"
>
    <g id="layer1" transform="translate(180.70385,-107.6194)">
        <path id="path17" d="m -135.90282,107.63374 c -2.90113,0.0719 -5.83738,0.41482 -8.78241,1.03663 -13.13075,2.77243 -24.96689,11.91036 -31.14848,24.04814 -1.75377,3.4436 -3.6058,9.08856 -4.2969,13.09688 -0.74382,4.31419 -0.76663,11.01975 -0.0517,15.18357 1.03052,6.00148 3.33677,12.03113 6.52311,17.0558 2.73322,4.31015 5.46032,7.43226 9.24337,10.58179 8.17314,6.8044 17.73295,10.40369 28.50472,10.73268 9.00336,0.27495 18.76782,-2.53899 26.36221,-7.59696 2.79082,-1.85872 7.06708,-5.57015 8.85166,-7.68325 l 1.369939,-1.62315 -1.831409,1.53582 c -8.90014,7.46065 -20.29157,10.55086 -31.69419,8.59792 -13.54663,-2.32014 -25.40285,-12.50565 -29.66693,-25.48681 -0.46023,-1.40107 -1.07098,-3.69662 -1.35754,-5.10098 -0.52766,-2.5861 -0.58807,-3.85751 -0.11265,-2.3735 0.43499,1.35779 2.37064,5.26033 3.58066,7.21868 1.7282,2.797 4.54171,6.12161 7.03213,8.30905 2.43224,2.13634 2.51359,1.91576 0.3359,-0.91054 -7.23041,-9.38394 -8.84713,-23.29817 -4.01526,-34.55241 1.22488,-2.85296 3.11431,-6.02297 4.72322,-7.92251 0.73594,-0.86888 1.20971,-1.57401 1.05265,-1.56683 -0.52299,0.0239 -4.02399,3.32918 -5.9278,5.59604 -1.03336,1.23042 -2.53133,3.30236 -3.329,4.60437 -1.43215,2.33765 -3.32354,6.2543 -3.42046,7.08329 -0.0275,0.23478 -0.14399,0.42684 -0.2589,0.42684 -0.69065,-10e-6 1.54276,-8.24642 3.19825,-11.80909 4.44752,-9.57113 12.71496,-16.959 22.71025,-20.29437 11.69905,-3.90393 25.31243,-1.81936 34.66558,5.30768 4.574937,3.48606 4.552592,3.48258 1.30741,0.18966 -9.08553,-9.21929 -20.99587,-13.99606 -33.56746,-13.68444 z m 11.20345,14.15883 2.73472,0.31316 c 1.50397,0.17263 3.51382,0.52005 4.4664,0.77204 3.42886,0.90698 5.94418,1.98198 9.13742,3.90467 1.75086,1.0542 2.63414,1.79551 5.28909,4.43901 3.358329,3.34391 4.219348,4.48127 5.965006,7.88014 1.016589,1.97931 2.264291,5.41715 2.756421,7.59437 0.824559,3.64801 0.83152,7.75037 0.16278,12.58269 -1.157398,6.29513 -4.058749,11.83191 -8.686287,16.45946 -5.43466,5.43465 -11.73871,8.39916 -19.59622,9.21546 l -1.86449,0.19379 2.25516,-0.0305 c 1.24062,-0.0168 3.47961,-0.27615 4.97541,-0.57671 9.33659,-1.87598 17.613456,-8.2517 21.935092,-16.89561 1.297929,-2.59603 2.315204,-5.77462 2.805514,-8.30492 l 0.01705,-0.007 c 0.0237,-0.14543 0.04299,-0.28802 0.06459,-0.43201 0.0937,-0.53943 0.15741,-1.03136 0.19327,-1.48415 0.44637,-4.11351 0.102397,-7.54745 -0.350883,-9.96011 -0.008,-0.0528 -0.02284,-0.11816 -0.03204,-0.17364 -0.10286,-0.53079 -0.208163,-1.00257 -0.312643,-1.4242 -0.0108,-0.0412 -0.01764,-0.0753 -0.02894,-0.11731 -0.33043,-1.30801 -0.623883,-2.05235 -0.628903,-2.07222 -1.623098,-4.86545 -3.384917,-7.8552 -6.881747,-11.67371 -0.35799,-0.39093 -0.72607,-0.77202 -1.10278,-1.14308 v -5.2e-4 c -5.65064,-5.56593 -13.34195,-8.86675 -21.13411,-9.01753 z m -10.73887,17.61649 v 10.36268 c 0,1.23667 -0.0531,2.53748 -0.15968,3.90208 -0.10662,1.3646 -0.34136,2.73941 -0.70384,4.12533 -0.34114,1.36461 -0.87392,2.68686 -1.59887,3.96617 -0.72494,1.25799 -1.70578,2.41999 -2.94245,3.48609 0.25586,0.14926 0.5544,0.37329 0.89555,0.6718 0.34115,0.2985 0.67133,0.60776 0.99115,0.92759 0.31983,0.34115 0.5653,0.62897 0.73588,0.86351 1.36459,-1.15138 2.46281,-2.46291 3.29437,-3.93413 0.85287,-1.49253 1.49231,-3.04901 1.91874,-4.66948 0.0946,-0.36423 0.18001,-0.72619 0.26097,-1.08727 h 14.19552 v 5.14904 c 0,0.31983 -0.075,0.55458 -0.22428,0.70383 -0.12793,0.12792 -0.3836,0.20243 -0.76739,0.22376 h -1.27951 -2.11047 c -0.7889,-0.0213 -1.57787,-0.0535 -2.36678,-0.0961 0.1919,0.29851 0.38378,0.67155 0.57568,1.11931 0.1919,0.44776 0.36234,0.88511 0.51159,1.31155 0.17054,0.44776 0.28792,0.84225 0.35192,1.18339 1.68443,0 3.09139,-0.0429 4.22145,-0.12816 1.15138,-0.064 2.08987,-0.24512 2.81481,-0.54363 0.6823,-0.27719 1.17272,-0.70331 1.47123,-1.27899 0.29851,-0.5757 0.44752,-1.3968 0.44752,-2.4629 v -23.79545 h -2.0469 -14.96808 z m 3.51813,3.35845 h 13.36921 v 4.31757 h -13.36921 z m -0.007,7.5799 h 13.37645 v 4.31757 h -13.63741 c 0.0138,-0.12773 0.0324,-0.25665 0.0444,-0.38396 0.1301,-1.39398 0.19983,-2.70164 0.21652,-3.93361 z" />
    </g>
</svg>
